<svg width="57" height="56" viewBox="0 0 57 56" fill="none" xmlns="http://www.w3.org/2000/svg"><ellipse cx="28.5" cy="27.825" rx="10" ry="9.9375" fill="white"/><path fill-rule="evenodd" clip-rule="evenodd" d="M32.933 4.89579C33.2186 5.15413 33.2617 5.58182 33.3477 6.4372L33.767 10.6037C33.9307 12.2309 34.0126 13.0445 34.564 13.2736C35.1154 13.5028 35.7498 12.987 37.0187 11.9553L40.3036 9.28445C40.9672 8.7449 41.299 8.47513 41.682 8.49422C42.0651 8.51332 42.3684 8.81475 42.9751 9.41761L47.007 13.4243C47.6207 14.0342 47.9275 14.3391 47.9468 14.7257C47.9661 15.1123 47.6911 15.4463 47.1412 16.1142L44.4932 19.3304C43.4457 20.6027 42.9219 21.2388 43.1507 21.7931C43.3795 22.3474 44.1995 22.4288 45.8395 22.5918L50.0311 23.0084C50.8875 23.0935 51.3158 23.136 51.5745 23.4218C51.8333 23.7075 51.8333 24.1379 51.8333 24.9986V30.6513C51.8333 31.512 51.8333 31.9424 51.5745 32.2281C51.3158 32.5139 50.8875 32.5564 50.0311 32.6415L45.8403 33.058C44.2004 33.221 43.3804 33.3025 43.1516 33.8567C42.9228 34.411 43.4466 35.0471 44.4941 36.3194L47.1413 39.5347L47.1413 39.5347C47.6912 40.2026 47.9662 40.5366 47.9469 40.9232C47.9276 41.3098 47.6208 41.6147 47.0071 42.2246L42.9752 46.2313C42.3685 46.8341 42.0652 47.1356 41.6821 47.1547C41.2991 47.1737 40.9673 46.904 40.3037 46.3644L37.0188 43.6936C35.7499 42.6619 35.1155 42.1461 34.5641 42.3752C34.0127 42.6044 33.9309 43.418 33.7671 45.0451L33.3477 49.2127C33.2617 50.0681 33.2186 50.4958 32.933 50.7541C32.6473 51.0124 32.2175 51.0124 31.3578 51.0124H25.6421C24.7824 51.0124 24.3526 51.0124 24.0669 50.7541C23.7813 50.4958 23.7383 50.0681 23.6522 49.2127L23.2329 45.046C23.0692 43.4189 22.9873 42.6053 22.4359 42.3761C21.8845 42.147 21.2501 42.6628 19.9813 43.6945L19.9812 43.6945L16.6962 46.3655C16.0326 46.905 15.7008 47.1748 15.3177 47.1557C14.9347 47.1366 14.6313 46.8352 14.0247 46.2323L14.0247 46.2323L9.99276 42.2256C9.37908 41.6158 9.07224 41.3108 9.05295 40.9242C9.03366 40.5376 9.30861 40.2037 9.85852 39.5357L12.5065 36.3195C13.5541 35.0472 14.0778 34.411 13.849 33.8568C13.6203 33.3025 12.8003 33.221 11.1603 33.0581L6.96885 32.6415C6.11237 32.5564 5.68414 32.5139 5.42538 32.2281C5.16663 31.9424 5.16663 31.512 5.16663 30.6513V24.9986C5.16663 24.1379 5.16663 23.7075 5.42538 23.4218C5.68413 23.136 6.11237 23.0935 6.96883 23.0084H6.96885L11.1612 22.5917C12.8012 22.4288 13.6211 22.3473 13.8499 21.793C14.0787 21.2388 13.5549 20.6026 12.5074 19.3303L9.85863 16.1131C9.30872 15.4452 9.03376 15.1113 9.05306 14.7247C9.07235 14.338 9.37919 14.0331 9.99287 13.4233L14.0248 9.41656C14.6314 8.8137 14.9348 8.51227 15.3178 8.49317C15.7009 8.47408 16.0327 8.74385 16.6963 9.2834L19.9813 11.9544C21.2502 12.9861 21.8846 13.5019 22.436 13.2727C22.9874 13.0435 23.0693 12.23 23.233 10.6028L23.6522 6.43721C23.7383 5.58182 23.7813 5.15413 24.0669 4.89579C24.3526 4.63745 24.7824 4.63745 25.6421 4.63745H31.3578C32.2175 4.63745 32.6473 4.63745 32.933 4.89579ZM28.5 37.1C33.6546 37.1 37.8333 32.9474 37.8333 27.825C37.8333 22.7025 33.6546 18.55 28.5 18.55C23.3453 18.55 19.1666 22.7025 19.1666 27.825C19.1666 32.9474 23.3453 37.1 28.5 37.1Z" fill="#4F4E4F"/></svg>