<svg width="47" height="47" viewBox="0 0 47 47" fill="none" xmlns="http://www.w3.org/2000/svg"><path d="M12 43.9186C15.4964 45.9373 19.4627 47 23.5 47C27.5373 47 31.5036 45.9373 35 43.9186L23.5 24L12 43.9186Z" fill="white"/><circle cx="23.5" cy="24" r="20" fill="white"/><path fill-rule="evenodd" clip-rule="evenodd" d="M23.5142 0.0866887C18.0508 0.0810038 12.7638 2.06736 8.60098 5.68979C4.43814 9.31223 1.67142 14.334 0.796659 19.8551C-0.0781065 25.3762 0.996245 31.0357 3.8272 35.8195C6.65815 40.6034 11.0607 44.1987 16.2458 45.9613C17.4031 46.1781 17.8123 45.4411 17.8123 44.8198C17.8123 44.1985 17.8123 42.7826 17.8123 40.8176C11.419 42.2625 10.0641 37.6678 10.0641 37.6678C9.64612 36.2436 8.74526 35.0191 7.5237 34.2145C5.43491 32.7696 7.67892 32.7696 7.67892 32.7696C8.40618 32.8748 9.1005 33.148 9.70936 33.5685C10.3182 33.9891 10.8256 34.546 11.1931 35.197C11.5054 35.7767 11.9264 36.2876 12.432 36.7003C12.9376 37.113 13.5178 37.4193 14.1394 37.6019C14.7609 37.7845 15.4116 37.8397 16.054 37.7642C16.6964 37.6887 17.3179 37.484 17.8829 37.162C17.9715 35.9734 18.472 34.8563 19.2942 34.0122C14.1852 33.4198 8.82211 31.397 8.82211 22.381C8.78411 20.0441 9.62837 17.7823 11.179 16.0669C10.4895 14.0355 10.5702 11.8131 11.4049 9.83956C11.4049 9.83956 13.3384 9.2038 17.7277 12.2525C21.4968 11.193 25.4751 11.193 29.2442 12.2525C33.6335 9.2038 35.567 9.83956 35.567 9.83956C36.4017 11.8131 36.4823 14.0355 35.7928 16.0669C37.3434 17.7823 38.1878 20.0441 38.1498 22.381C38.1498 31.4259 32.7726 33.4054 27.6494 33.94C28.1988 34.5053 28.6229 35.185 28.8932 35.9329C29.1635 36.6807 29.2736 37.4794 29.216 38.2746C29.216 41.4244 29.216 43.9673 29.216 44.7331C29.216 45.4989 29.6253 46.0913 30.7967 45.8602C35.9725 44.0893 40.3642 40.4913 43.1865 35.7097C46.0088 30.928 47.0777 25.2745 46.202 19.7601C45.3263 14.2456 42.5632 9.22986 38.4067 5.60972C34.2501 1.98958 28.9714 0.00119559 23.5142 0V0.0866887Z" fill="#4F4E4F"/></svg>